# xmcd CD database file
#
# Track frame offsets:
#	150
#	13126
#	25546
#	41882
#	62221
#	81831
#	98308
#	116057
#	129145
#	155044
#	167454
#	179602
#	193540
#	206530
#	224810
#
# Disc length: 3147 seconds
#
# Revision: 1
# Processed by: cddbd v1.5.1PL2 Copyright (c) Steve Scherf et al.
# Submitted via: CDex 1.51
#
DISCID=cc0c490f
DTITLE=Glen Campbell - Legacy 1961-2002 [CD4]
DYEAR=2003
DGENRE=Country
TTITLE0=The Impossible Dream (Live)
TTITLE1=The Lord's Prayer (Live)
TTITLE2=Didn't We (Live)
TTITLE3=My Way (Live)
TTITLE4=Try To Remember and The Way We Were (Live)
TTITLE5=Galveston (Live)
TTITLE6=Amazing Grace (Live)
TTITLE7=Classical Gas (Live)
TTITLE8=(Medley) Good Vibrations, Help Me Rhonda, Surfer Girl, Surfin' USA (Live)
TTITLE9=Mansion In Branson (Live)
TTITLE10=Let It Be Me (Live With Debbie Campbell)
TTITLE11=Highwayman (Live)
TTITLE12=The William Tell Overture (Live)
TTITLE13=Still Within The Sound Of My Voice (Live)
TTITLE14=Time In A Bottle (Live)
EXTD=2003 Capitol Nashville YEAR: 2003
EXTT0=
EXTT1=
EXTT2=
EXTT3=
EXTT4=
EXTT5=
EXTT6=
EXTT7=
EXTT8=
EXTT9=
EXTT10=
EXTT11=
EXTT12=
EXTT13=
EXTT14=
PLAYORDER=
